Blindness

.: INFO :.

Directed by 	Fernando Meirelles
Produced by 	Niv Fichman
Andrea Barata Ribeiro
Sonoko Sakai
Written by 	Blindness by
José Saramago
Screenplay by 	Don McKellar
Narrated by 	Danny Glover
Music by 	Marco Antonio Guimarães
Cinematography 	César Charlone
Editing by 	Daniel Rezende
Distributed by 	Miramax Films (US)
Focus Features (international)

.: CAST :.

Julianne Moore
Mark Ruffalo
Gael García Bernal
Danny Glover
Yoshino Kimura
Alice Braga

.: STORYLINE :.

A doctor's wife becomes the only person with the ability to see in a town where everyone is struck with a mysterious case of sudden blindness. She feigns illness in order to take care of her husband as her surrounding community breaks down into chaos and disorder. 

.: SPECIFICS :.

General
Unique ID                        : 170592504929716993925886162774123748663 (0x8056EBDDCDEEB24594208E93A7C61D37)
Complete name                    : C:\Users\Sol\Desktop\FILM Sottotitolati\Blindness.mkv
Format                           : Matroska
File size                        : 928 MiB
Duration                         : 1h 57mn
Overall bit rate                 : 1 105 Kbps
Encoded date                     : UTC 2011-05-19 22:02:39
Writing application              : mkvmerge v4.6.0 ('Still Crazy After All These Years') built on Mar 10 2011 02:50:32
Writing library                  : libebml v1.2.0 + libmatroska v1.1.0

Video
ID                               : 3
Format                           : AVC
Format/Info                      : Advanced Video Codec
Format profile                   : Baseline@L3.0
Format settings, CABAC           : No
Format settings, ReFrames        : 1 frame
Format settings, GOP             : M=1, N=15
Muxing mode                      : Header stripping
Codec ID                         : V_MPEG4/ISO/AVC
Duration                         : 1h 57mn
Bit rate                         : 891 Kbps
Width                            : 720 pixels
Height                           : 384 pixels
Display aspect ratio             : 1.875
Frame rate                       : 25.000 fps
Color space                      : YUV
Chroma subsampling               : 4:2:0
Bit depth                        : 8 bits
Scan type                        : Progressive
Bits/(Pixel*Frame)               : 0.129
Stream size                      : 748 MiB (81%)

Audio
ID                               : 4
Format                           : AC-3
Format/Info                      : Audio Coding 3
Mode extension                   : CM (complete main)
Muxing mode                      : Header stripping
Codec ID                         : A_AC3
Duration                         : 1h 57mn
Bit rate mode                    : Constant
Bit rate                         : 192 Kbps
Channel(s)                       : 2 channels
Channel positions                : Front: L R
Sampling rate                    : 48.0 KHz
Bit depth                        : 16 bits
Compression mode                 : Lossy
Stream size                      : 161 MiB (17%)

Text #1
ID                               : 1
Format                           : UTF-8
Codec ID                         : S_TEXT/UTF8
Codec ID/Info                    : UTF-8 Plain Text
Language                         : Portuguese

Text #2
ID                               : 2
Format                           : UTF-8
Codec ID                         : S_TEXT/UTF8
Codec ID/Info                    : UTF-8 Plain Text
Language                         : Spanish

Text #3
ID                               : 5
Format                           : UTF-8
Codec ID                         : S_TEXT/UTF8
Codec ID/Info                    : UTF-8 Plain Text
Language                         : English

Text #4
ID                               : 6
Format                           : UTF-8
Codec ID                         : S_TEXT/UTF8
Codec ID/Info                    : UTF-8 Plain Text
Language                         : French

Text #5
ID                               : 7
Format                           : UTF-8
Codec ID                         : S_TEXT/UTF8
Codec ID/Info                    : UTF-8 Plain Text
Language                         : Italian